<svg xmlns="http://www.w3.org/2000/svg" viewBox="0 0 117 68" enable-background="new 0 0 117 68"><style type="text/css">.st0{fill:#BB9D6E;}</style><path class="st0" d="M86.1 38.6c5.1-1.5 10.3-3.6 15.3-6.3 8.1-4.7 12.2.2 9.2 7.6-2.6 7-16.1 20-28 22.9-4.5-3.2-13.4-5.4-23.7-5.4-10.3 0-19.2 2.2-23.7 5.4-11.8-3-25.4-16-28-22.9-3-7.4 1.1-12.3 9.2-7.6 5.1 2.8 10.3 4.8 15.3 6.3 10.8 3.3 20.8 4.1 26 4.1h2.9c5.3-.1 15-1 25.5-4.1z"/><path class="st0" d="M71.5 5.7c4.2 2.1 11.1 22 13.8 30.1-10.2 3-19.5 3.8-24.6 3.8h-2.9c-5.1 0-14.6-.8-25.1-3.8 2.7-8.1 9.5-28 13.8-30.1 4.8-2.4 9 1.6 12.3 2h-1.2.8.8c3.3-.4 7.5-4.4 12.3-2zm-1.6 15.4c0-.9-.7-1.6-1.6-1.6-.8 0-1.5.6-1.6 1.4l-4.9-.7-2.2-4.4c.6-.2 1-.8 1-1.5 0-.9-.7-1.6-1.6-1.6s-1.6.7-1.6 1.6c0 .7.4 1.3 1 1.5l-2.2 4.4-4.9.7c-.1-.8-.8-1.4-1.6-1.4-.9 0-1.6.7-1.6 1.6 0 .9.7 1.6 1.6 1.6.5 0 1-.3 1.3-.7l3.5 3.4-.9 5.1c-.2-.1-.4-.1-.6-.1-.9 0-1.6.7-1.6 1.6 0 .9.7 1.6 1.6 1.6.9 0 1.6-.7 1.6-1.6 0-.3-.1-.6-.3-.9l4.7-2.5 4.6 2.4c-.2.3-.3.6-.3.9 0 .9.7 1.6 1.6 1.6.9 0 1.6-.7 1.6-1.6 0-.9-.7-1.6-1.6-1.6-.2 0-.4 0-.6.1l-.9-5.1 3.5-3.4c.3.4.8.7 1.3.7.9.1 1.7-.6 1.7-1.5z" id="XMLID_1_"/></svg>