<?xml version="1.0" encoding="utf-8"?>
<!-- Generator: Adobe Illustrator 18.1.1, SVG Export Plug-In . SVG Version: 6.00 Build 0)  -->
<!DOCTYPE svg PUBLIC "-//W3C//DTD SVG 1.1//EN" "http://www.w3.org/Graphics/SVG/1.1/DTD/svg11.dtd">
<svg version="1.1" id="Layer_1" xmlns="http://www.w3.org/2000/svg" xmlns:xlink="http://www.w3.org/1999/xlink" x="0px" y="0px"
	 viewBox="0 0 117 68" style="enable-background:new 0 0 117 68;" xml:space="preserve">
<style type="text/css">
	.st0{fill:#BB9D6E;}
</style>
<g>
	<path class="st0" d="M86.1,38.6C86.2,38.6,86.2,38.6,86.1,38.6c5.1-1.5,10.3-3.6,15.3-6.3c8.1-4.7,12.2,0.2,9.2,7.6
		c-2.6,7-16.1,20-28,22.9c-4.5-3.2-13.4-5.4-23.7-5.4c-10.3,0-19.2,2.2-23.7,5.4c-11.8-3-25.4-16-28-22.9c-3-7.4,1.1-12.3,9.2-7.6
		c5.1,2.8,10.3,4.8,15.3,6.3c10.8,3.3,20.8,4.1,26,4.1l2.9,0C65.9,42.6,75.6,41.7,86.1,38.6z"/>
	<g id="XMLID_1_">
		<path class="st0" d="M71.5,5.7c4.2,2.1,11.1,22,13.8,30.1c-10.2,3-19.5,3.8-24.6,3.8l-2.9,0c-5.1,0-14.6-0.8-25.1-3.8
			c2.7-8.1,9.5-28,13.8-30.1c4.8-2.4,9,1.6,12.3,2h-0.6c0.3,0,0.5,0,0.8,0c0.3,0,0.6,0,0.8,0h-0.6C62.5,7.3,66.7,3.3,71.5,5.7z
			 M69.9,21.1c0-0.9-0.7-1.6-1.6-1.6c-0.8,0-1.5,0.6-1.6,1.4l-4.9-0.7l-2.2-4.4c0.6-0.2,1-0.8,1-1.5c0-0.9-0.7-1.6-1.6-1.6
			s-1.6,0.7-1.6,1.6c0,0.7,0.4,1.3,1,1.5l-2.2,4.4l-4.9,0.7c-0.1-0.8-0.8-1.4-1.6-1.4c-0.9,0-1.6,0.7-1.6,1.6c0,0.9,0.7,1.6,1.6,1.6
			c0.5,0,1-0.3,1.3-0.7l3.5,3.4l-0.9,5.1c-0.2-0.1-0.4-0.1-0.6-0.1c-0.9,0-1.6,0.7-1.6,1.6c0,0.9,0.7,1.6,1.6,1.6
			c0.9,0,1.6-0.7,1.6-1.6c0-0.3-0.1-0.6-0.3-0.9l4.7-2.5l4.6,2.4c-0.2,0.3-0.3,0.6-0.3,0.9c0,0.9,0.7,1.6,1.6,1.6
			c0.9,0,1.6-0.7,1.6-1.6c0-0.9-0.7-1.6-1.6-1.6c-0.2,0-0.4,0-0.6,0.1l-0.9-5.1l3.5-3.4c0.3,0.4,0.8,0.7,1.3,0.7
			C69.1,22.7,69.9,22,69.9,21.1z"/>
	</g>
</g>
<g>
</g>
<g>
</g>
<g>
</g>
<g>
</g>
<g>
</g>
<g>
</g>
<g>
</g>
<g>
</g>
<g>
</g>
<g>
</g>
<g>
</g>
<g>
</g>
<g>
</g>
<g>
</g>
<g>
</g>
</svg>
