<?xml version="1.0" encoding="utf-8"?>
<!-- Generator: Adobe Illustrator 18.1.1, SVG Export Plug-In . SVG Version: 6.00 Build 0)  -->
<!DOCTYPE svg PUBLIC "-//W3C//DTD SVG 1.1//EN" "http://www.w3.org/Graphics/SVG/1.1/DTD/svg11.dtd">
<svg version="1.1" id="Layer_1" xmlns="http://www.w3.org/2000/svg" xmlns:xlink="http://www.w3.org/1999/xlink" x="0px" y="0px"
	 viewBox="0 0 67.3 66.1" style="enable-background:new 0 0 67.3 66.1;" xml:space="preserve">
<style type="text/css">
	.st0{fill:#BB9D6E;}
</style>
<g id="Your_Icon_2_">
	<path class="st0" d="M11.8,64.2c0.8,0.1,1.4-0.5,1.6-1.2c-0.1,0.8,0.5,1.5,1.3,1.6c0.8,0.1,1.5-0.5,1.6-1.3
		c0.1-0.9,0.3-3.1,0.4-3.9c0,0,0,0,0.1,0C22,59.8,28,55.9,29.2,47.5c0.5-3.6-0.4-7.2-2.6-10.1c-1.5-2-3.5-3.5-5.7-4.4
		c0.2-0.3,0.3-0.7,0.3-1.1c0.1-1-0.1-1.9-0.7-2.7c-0.6-0.8-1.4-1.3-2.4-1.4c-1.8-0.3-3.5,0.9-4,2.6c0,0.2-0.1,0.3-0.1,0.5
		c-0.1,0.4,0,0.7,0,1.1c-0.4,0-0.8,0.1-1.2,0.2L12,29.6c0.9-0.7,1.7-1.6,2-2.8c0.2-0.6,0.2-1.2,0.2-1.8l-0.4-6.6
		c0-0.6-0.2-1.2-0.4-1.7l3.5-2.9c0.1,0,0.2,0.1,0.2,0.1c1.2,0.6,2.6,0.7,4,0.3l6.2-2.1c1.6-0.5,2.8-1.9,3.3-3.5c0,0,0,0,0,0l3.1-0.1
		c0.5,1.3,1.5,2.3,2.8,2.9l6.1,2.5c1.3,0.5,2.6,0.5,3.9,0l1.4,1.7c-0.3,0.4-0.5,0.9-0.7,1.4c-0.2,0.7-0.2,1.4-0.1,2.1l0.9,6.5
		c0.3,1.9,1.6,3.5,3.3,4.1L51.2,32c-4.6,0.1-9,2.6-11.4,6.8c-0.8,1.3-1.3,2.7-1.7,4c-1.6,5.7,0.5,10.7,4.2,13.1c0,0,0,0,0,0
		c-0.4,0.7-1.6,2.6-2.1,3.3c-0.4,0.7-0.2,1.6,0.5,2c0.7,0.4,1.6,0.2,2-0.5l0,0c-0.1,0.1-0.1,0.2-0.1,0.3c-0.2,0.6,0.1,1.3,0.6,1.7
		c0.7,0.4,1.6,0.2,2-0.5c0.2-0.3,1.6-2.6,2.1-3.4c0,0,0,0,0.1,0c4.7,2.4,11.7,1,16-6.3c3.2-5.5,2.1-12.3-2.2-16.6
		c0.3-0.2,0.5-0.5,0.7-0.9c0.2-0.3,0.3-0.5,0.3-0.8c0.5-1.6-0.2-3.3-1.7-4.1c-1.7-1-3.9-0.4-4.9,1.3c-0.2,0.3-0.3,0.5-0.3,0.8
		c0,0.1,0,0.1,0,0.2c-0.4-0.1-0.8-0.2-1.1-0.3l0.1-2.2c1.8-0.4,3.3-1.8,3.9-3.6c0.2-0.7,0.2-1.4,0.1-2.1l-0.9-6.5
		c-0.4-2.8-3-4.8-5.8-4.4c-0.5,0.1-0.9,0.2-1.4,0.4l-1.3-1.7c0.2-0.3,0.4-0.6,0.5-1c1.1-2.7-0.2-5.7-2.8-6.8l-6.1-2.5
		c-1.3-0.5-2.7-0.5-4,0c-1.3,0.5-2.3,1.5-2.8,2.8c-0.1,0.2-0.1,0.4-0.2,0.6c0,0.1-0.1,0.3-0.1,0.4l-2.9,0.1c0,0,0-0.1,0-0.1
		c-0.4-1.3-1.4-2.4-2.6-3c-1.2-0.6-2.6-0.7-4-0.3l-6.2,2.1c-1.6,0.5-2.8,1.9-3.3,3.5c-0.3,1-0.3,2.1,0.1,3.1
		c0.1,0.2,0.2,0.5,0.3,0.7l-3.4,2.8c-0.9-0.6-2-0.9-3.2-0.8c-2.2,0.1-4,1.6-4.6,3.8c-0.2,0.6-0.2,1.2-0.2,1.8l0.4,6.6
		c0.2,2.8,2.6,4.9,5.3,4.8l0.9,2.5c-3.6,1.6-6.5,4.8-7.6,8.7c-0.2,0.6-0.3,1.2-0.4,1.8C0.9,52,5.6,57.5,10.8,58.5c0,0,0,0,0.1,0
		c-0.1,1-0.4,3.7-0.4,4C10.4,63.4,11,64.1,11.8,64.2z M60.9,51.1c-2.5,4.3-7.5,7.5-12.1,5.2c-1.4-0.7-3.1-0.3-3.8,0.9
		c0.7-1.3,0.2-2.9-1.1-3.8c-4.3-2.8-4-8.7-1.5-13c3-5.1,9.5-6.9,14.6-3.9C62.1,39.4,63.8,46,60.9,51.1z M58.2,33
		c0.2-0.3,0.6-0.4,0.9-0.2c0.3,0.1,0.4,0.5,0.3,0.7c0,0.1,0,0.1-0.1,0.1c-0.2,0.3-0.6,0.4-0.9,0.2c0,0,0,0,0,0c0,0,0,0,0,0
		C58.2,33.7,58.1,33.3,58.2,33z M54.4,18.2l0.9,6.5c0,0.3,0,0.6-0.1,0.9c-0.1,0.5-0.5,0.9-0.9,1.2l0.1-2.1c0-0.8-0.6-1.5-1.4-1.5
		c-0.7,0-1.3,0.4-1.5,1.1c0,0.1-0.1,0.2-0.1,0.4l-0.1,1.8c-0.2-0.3-0.4-0.7-0.5-1.1L50,18.8c0-0.2,0-0.3,0-0.5l1,1.3
		c0.5,0.6,1.4,0.8,2.1,0.2c0.6-0.5,0.8-1.4,0.2-2.1l-1.2-1.5C53.3,16.3,54.2,17.1,54.4,18.2z M37.6,4.6c0.5-0.2,1.1-0.2,1.7,0
		l6.1,2.5c1,0.4,1.5,1.4,1.3,2.4L46,8.6c-0.5-0.6-1.4-0.8-2.1-0.2c-0.3,0.2-0.4,0.5-0.5,0.8c-0.1,0.4,0,0.9,0.3,1.3l0.7,0.9
		c-0.2,0-0.5-0.1-0.7-0.2l-6.1-2.5c-0.1-0.1-0.3-0.1-0.4-0.2l1.1,0c0.8,0,1.5-0.7,1.5-1.5c0-0.8-0.7-1.5-1.5-1.5l-1.8,0
		C36.8,5.1,37.2,4.8,37.6,4.6z M18.7,7.3l6.2-2.1C25.5,5,26.1,5,26.6,5.3c0.2,0.1,0.5,0.3,0.6,0.5l-1.2,0c-0.7,0-1.2,0.5-1.4,1.1
		c0,0.1-0.1,0.3-0.1,0.4c0,0.8,0.7,1.5,1.5,1.5l1.2,0C27,9,26.7,9.2,26.3,9.3l-6.2,2.1c-0.1,0-0.3,0.1-0.4,0.1l1.1-0.9
		c0.6-0.5,0.7-1.5,0.2-2.1c-0.5-0.6-1.5-0.7-2.1-0.2l-1.6,1.4C17.1,8.7,17.7,7.6,18.7,7.3z M6.8,25.5L6.4,19
		c-0.1-1.2,0.9-2.3,2.1-2.4c0.1,0,0.2,0,0.4,0l-1,0.8c-0.2,0.2-0.4,0.5-0.5,0.7c-0.1,0.5,0,1,0.3,1.4c0.5,0.6,1.5,0.7,2.1,0.2
		l1.1-0.9l0.4,6.4c0,0.3,0,0.5-0.1,0.8c-0.1,0.2-0.2,0.4-0.3,0.6l-0.5-1.4c-0.3-0.8-1.1-1.2-1.9-0.9c-0.5,0.2-0.8,0.5-0.9,1
		c-0.1,0.3-0.1,0.6,0,0.9L8,27.4C7.4,27,6.9,26.3,6.8,25.5z M17.1,31.8c-0.1-0.1-0.2-0.2-0.1-0.5c0-0.4,0.4-0.6,0.7-0.5
		c0.2,0,0.4,0.2,0.4,0.3c0.1,0.1,0.2,0.2,0.1,0.5c0,0,0,0.1,0,0.1c-0.1,0.3-0.4,0.5-0.7,0.5l0,0c0,0,0,0,0,0
		C17.3,32,17.2,31.9,17.1,31.8z M5,44.1c0.8-5.8,6.3-9.9,12.1-9.1c2.8,0.4,5.3,1.9,7.1,4.2c1.7,2.3,2.4,5.1,2,7.9
		c-0.9,6.6-5.4,9.6-9.3,9.3c-1.6-0.1-3,0.9-3.2,2.3c0.2-1.4-0.9-2.8-2.4-3.1C6.3,54.6,4.3,49,5,44.1z"/>
</g>
<g>
</g>
<g>
</g>
<g>
</g>
<g>
</g>
<g>
</g>
<g>
</g>
<g>
</g>
<g>
</g>
<g>
</g>
<g>
</g>
<g>
</g>
<g>
</g>
<g>
</g>
<g>
</g>
<g>
</g>
</svg>
