<svg xmlns="http://www.w3.org/2000/svg" viewBox="0 0 67.3 66.1" enable-background="new 0 0 67.3 66.1"><style type="text/css">.st0{fill:#BB9D6E;}</style><path class="st0" d="M11.8 64.2c.8.1 1.4-.5 1.6-1.2-.1.8.5 1.5 1.3 1.6.8.1 1.5-.5 1.6-1.3.1-.9.3-3.1.4-3.9h.1c5.2.4 11.2-3.5 12.4-11.9.5-3.6-.4-7.2-2.6-10.1-1.5-2-3.5-3.5-5.7-4.4.2-.3.3-.7.3-1.1.1-1-.1-1.9-.7-2.7-.6-.8-1.4-1.3-2.4-1.4-1.8-.3-3.5.9-4 2.6l-.1.5c-.1.4 0 .7 0 1.1-.4 0-.8.1-1.2.2l-.8-2.6c.9-.7 1.7-1.6 2-2.8.2-.6.2-1.2.2-1.8l-.4-6.6c0-.6-.2-1.2-.4-1.7l3.5-2.9c.1 0 .2.1.2.1 1.2.6 2.6.7 4 .3l6.2-2.1c1.6-.5 2.8-1.9 3.3-3.5l3.1-.1c.5 1.3 1.5 2.3 2.8 2.9l6.1 2.5c1.3.5 2.6.5 3.9 0l1.4 1.7c-.3.4-.5.9-.7 1.4-.2.7-.2 1.4-.1 2.1l.9 6.5c.3 1.9 1.6 3.5 3.3 4.1l-.1 2.3c-4.6.1-9 2.6-11.4 6.8-.8 1.3-1.3 2.7-1.7 4-1.6 5.7.5 10.7 4.2 13.1-.4.7-1.6 2.6-2.1 3.3-.4.7-.2 1.6.5 2 .7.4 1.6.2 2-.5-.1.1-.1.2-.1.3-.2.6.1 1.3.6 1.7.7.4 1.6.2 2-.5.2-.3 1.6-2.6 2.1-3.4h.1c4.7 2.4 11.7 1 16-6.3 3.2-5.5 2.1-12.3-2.2-16.6.3-.2.5-.5.7-.9.2-.3.3-.5.3-.8.5-1.6-.2-3.3-1.7-4.1-1.7-1-3.9-.4-4.9 1.3-.2.3-.3.5-.3.8v.2c-.4-.1-.8-.2-1.1-.3l.1-2.2c1.8-.4 3.3-1.8 3.9-3.6.2-.7.2-1.4.1-2.1l-.9-6.5c-.4-2.8-3-4.8-5.8-4.4-.5.1-.9.2-1.4.4l-1.3-1.7c.2-.3.4-.6.5-1 1.1-2.7-.2-5.7-2.8-6.8l-6.1-2.5c-1.3-.5-2.7-.5-4 0-1.3.5-2.3 1.5-2.8 2.8l-.2.6-.1.4-2.9.1v-.1c-.4-1.3-1.4-2.4-2.6-3-1.2-.6-2.6-.7-4-.3l-6.2 2.1c-1.6.5-2.8 1.9-3.3 3.5-.3 1-.3 2.1.1 3.1l.3.7-3.4 2.8c-.9-.6-2-.9-3.2-.8-2.2.1-4 1.6-4.6 3.8-.2.6-.2 1.2-.2 1.8l.4 6.6c.2 2.8 2.6 4.9 5.3 4.8l.9 2.5c-3.6 1.6-6.5 4.8-7.6 8.7-.2.6-.3 1.2-.4 1.8-1.1 8.4 3.6 13.9 8.8 14.9h.1c-.1 1-.4 3.7-.4 4-.1.9.5 1.6 1.3 1.7zm49.1-13.1c-2.5 4.3-7.5 7.5-12.1 5.2-1.4-.7-3.1-.3-3.8.9.7-1.3.2-2.9-1.1-3.8-4.3-2.8-4-8.7-1.5-13 3-5.1 9.5-6.9 14.6-3.9 5.1 2.9 6.8 9.5 3.9 14.6zm-2.7-18.1c.2-.3.6-.4.9-.2.3.1.4.5.3.7 0 .1 0 .1-.1.1-.2.3-.6.4-.9.2-.2-.1-.3-.5-.2-.8zm-3.8-14.8l.9 6.5c0 .3 0 .6-.1.9-.1.5-.5.9-.9 1.2l.1-2.1c0-.8-.6-1.5-1.4-1.5-.7 0-1.3.4-1.5 1.1 0 .1-.1.2-.1.4l-.1 1.8c-.2-.3-.4-.7-.5-1.1l-.8-6.6v-.5l1 1.3c.5.6 1.4.8 2.1.2.6-.5.8-1.4.2-2.1l-1.2-1.5c1.2.1 2.1.9 2.3 2zm-16.8-13.6c.5-.2 1.1-.2 1.7 0l6.1 2.5c1 .4 1.5 1.4 1.3 2.4l-.7-.9c-.5-.6-1.4-.8-2.1-.2-.3.2-.4.5-.5.8-.1.4 0 .9.3 1.3l.7.9c-.2 0-.5-.1-.7-.2l-6.1-2.5-.4-.2h1.1c.8 0 1.5-.7 1.5-1.5s-.7-1.5-1.5-1.5h-1.8c.3-.4.7-.7 1.1-.9zm-18.9 2.7l6.2-2.1c.6-.2 1.2-.2 1.7.1.2.1.5.3.6.5h-1.2c-.7 0-1.2.5-1.4 1.1l-.1.4c0 .8.7 1.5 1.5 1.5h1.2c-.2.2-.5.4-.9.5l-6.2 2.1-.4.1 1.1-.9c.6-.5.7-1.5.2-2.1-.5-.6-1.5-.7-2.1-.2l-1.6 1.4c-.2-1 .4-2.1 1.4-2.4zm-11.9 18.2l-.4-6.5c-.1-1.2.9-2.3 2.1-2.4h.4l-1 .8c-.2.2-.4.5-.5.7-.1.5 0 1 .3 1.4.5.6 1.5.7 2.1.2l1.1-.9.4 6.4c0 .3 0 .5-.1.8l-.3.6-.5-1.4c-.3-.8-1.1-1.2-1.9-.9-.5.2-.8.5-.9 1-.1.3-.1.6 0 .9l.4 1.2c-.6-.4-1.1-1.1-1.2-1.9zm10.3 6.3c-.1-.1-.2-.2-.1-.5 0-.4.4-.6.7-.5.2 0 .4.2.4.3.1.1.2.2.1.5v.1c-.1.3-.4.5-.7.5l-.4-.4zm-12.1 12.3c.8-5.8 6.3-9.9 12.1-9.1 2.8.4 5.3 1.9 7.1 4.2 1.7 2.3 2.4 5.1 2 7.9-.9 6.6-5.4 9.6-9.3 9.3-1.6-.1-3 .9-3.2 2.3.2-1.4-.9-2.8-2.4-3.1-5-1-7-6.6-6.3-11.5z" id="Your_Icon_2_"/></svg>