<svg xmlns="http://www.w3.org/2000/svg" viewBox="0 0 52.4 57.3" enable-background="new 0 0 52.4 57.3"><style type="text/css">.st0{fill:#87724F;}</style><path class="st0" d="M48.1 39.1c-.4 0-.7.1-1 .3l-6.5-11 6.5-11c.3.2.7.3 1 .3 1.1 0 2.1-.9 2.1-2.1 0-1.1-.9-2.1-2.1-2.1-1.1 0-2.1.9-2.1 2.1l-12.7.4-6.2-11.2c.6-.4 1.1-1 1.1-1.8 0-1.1-.9-2.1-2.1-2.1-1.2.1-2.1 1-2.1 2.2 0 .8.4 1.4 1.1 1.8l-6.2 11.1-12.8-.2c0-1.1-.9-2.1-2.1-2.1-1.1 0-2.1.9-2.1 2.1 0 1.1.9 2.1 2.1 2.1.4 0 .7-.1 1-.3l6.5 11-6.5 11c-.3-.2-.7-.3-1-.3-1.1 0-2.1.9-2.1 2.1 0 1.1.9 2.1 2.1 2.1 1.1 0 2.1-.9 2.1-2.1l12.8-.4 6.2 11.1c-.6.4-1.1 1-1.1 1.8 0 1.1.9 2.1 2.1 2.1 1.1 0 2.1-.9 2.1-2.1 0-.8-.4-1.4-1.1-1.8l6.2-11.1 12.7.2c0 1.1.9 2.1 2.1 2.1 1.1 0 2.1-.9 2.1-2.1 0-1.1-.9-2.1-2.1-2.1z" id="Your_Icon"/></svg>