<?xml version="1.0" encoding="utf-8"?>
<!-- Generator: Adobe Illustrator 18.1.1, SVG Export Plug-In . SVG Version: 6.00 Build 0)  -->
<!DOCTYPE svg PUBLIC "-//W3C//DTD SVG 1.1//EN" "http://www.w3.org/Graphics/SVG/1.1/DTD/svg11.dtd">
<svg version="1.1" id="Layer_1" xmlns="http://www.w3.org/2000/svg" xmlns:xlink="http://www.w3.org/1999/xlink" x="0px" y="0px"
	 viewBox="0 0 52.4 57.3" style="enable-background:new 0 0 52.4 57.3;" xml:space="preserve">
<style type="text/css">
	.st0{fill:#87724F;}
</style>
<g id="Your_Icon">
	<path class="st0" d="M48.1,39.1c-0.4,0-0.7,0.1-1,0.3l-6.5-11l6.5-11c0.3,0.2,0.7,0.3,1,0.3c1.1,0,2.1-0.9,2.1-2.1
		c0-1.1-0.9-2.1-2.1-2.1c-1.1,0-2.1,0.9-2.1,2.1c0,0,0,0,0,0L33.3,16L27.1,4.8c0.6-0.4,1.1-1,1.1-1.8c0-1.1-0.9-2.1-2.1-2.1
		C24.9,1,24,1.9,24,3.1c0,0.8,0.4,1.4,1.1,1.8L18.9,16L6.1,15.8c0,0,0,0,0,0c0-1.1-0.9-2.1-2.1-2.1c-1.1,0-2.1,0.9-2.1,2.1
		c0,1.1,0.9,2.1,2.1,2.1c0.4,0,0.7-0.1,1-0.3l6.5,11l-6.5,11c-0.3-0.2-0.7-0.3-1-0.3c-1.1,0-2.1,0.9-2.1,2.1c0,1.1,0.9,2.1,2.1,2.1
		c1.1,0,2.1-0.9,2.1-2.1c0,0,0,0,0,0L18.9,41l6.2,11.1c-0.6,0.4-1.1,1-1.1,1.8c0,1.1,0.9,2.1,2.1,2.1c1.1,0,2.1-0.9,2.1-2.1
		c0-0.8-0.4-1.4-1.1-1.8L33.3,41l12.7,0.2c0,0,0,0,0,0c0,1.1,0.9,2.1,2.1,2.1c1.1,0,2.1-0.9,2.1-2.1C50.2,40.1,49.3,39.1,48.1,39.1z
		"/>
</g>
<g>
</g>
<g>
</g>
<g>
</g>
<g>
</g>
<g>
</g>
<g>
</g>
<g>
</g>
<g>
</g>
<g>
</g>
<g>
</g>
<g>
</g>
<g>
</g>
<g>
</g>
<g>
</g>
<g>
</g>
</svg>
